<?xml version="1.0" encoding="UTF-8" standalone="no"?>
<svg
   width="26"
   height="250"
   version="1.1"
   id="svg11"
   sodipodi:docname="sprite.svg"
   inkscape:version="1.3.1 (9b9bdc1480, 2023-11-25, custom)"
   xmlns:inkscape="http://www.inkscape.org/namespaces/inkscape"
   xmlns:sodipodi="http://sodipodi.sourceforge.net/DTD/sodipodi-0.dtd"
   xmlns="http://www.w3.org/2000/svg"
   xmlns:svg="http://www.w3.org/2000/svg">
  <defs
     id="defs11" />
  <sodipodi:namedview
     id="namedview11"
     pagecolor="#ffffff"
     bordercolor="#000000"
     borderopacity="0.25"
     inkscape:showpageshadow="2"
     inkscape:pageopacity="0.0"
     inkscape:pagecheckerboard="0"
     inkscape:deskcolor="#d1d1d1"
     showgrid="false"
     showguides="true"
     inkscape:zoom="11.028146"
     inkscape:cx="9.7024467"
     inkscape:cy="210.14411"
     inkscape:window-width="1854"
     inkscape:window-height="1011"
     inkscape:window-x="66"
     inkscape:window-y="32"
     inkscape:window-maximized="1"
     inkscape:current-layer="svg11">
    <sodipodi:guide
       position="32.527234,83.951667"
       orientation="0,-1"
       id="guide11"
       inkscape:locked="false" />
    <sodipodi:guide
       position="-20.785869,73.036979"
       orientation="0,-1"
       id="guide12"
       inkscape:locked="false" />
    <sodipodi:guide
       position="-26.477705,68.242313"
       orientation="0.70710678,-0.70710678"
       id="guide13"
       inkscape:locked="false" />
    <sodipodi:guide
       position="9.1601699,30.997681"
       orientation="0,-1"
       id="guide14"
       inkscape:locked="false" />
    <sodipodi:guide
       position="1.7894266,22.500946"
       orientation="0,-1"
       id="guide15"
       inkscape:locked="false" />
    <sodipodi:guide
       position="6.7101033,40.495129"
       orientation="1,0"
       id="guide16"
       inkscape:locked="false" />
    <sodipodi:guide
       position="20.674372,25.89612"
       orientation="1,0"
       id="guide17"
       inkscape:locked="false" />
    <sodipodi:guide
       position="-32.643746,26.208987"
       orientation="0,-1"
       id="guide18"
       inkscape:locked="false" />
    <sodipodi:guide
       position="31.143335,15.680064"
       orientation="0,-1"
       id="guide19"
       inkscape:locked="false" />
  </sodipodi:namedview>
  <circle
     fill-opacity="0.78"
     cy="117"
     cx="13"
     r="11"
     fill="#ffffff"
     id="circle1" />
  <circle
     fill-opacity="0.78"
     cy="143"
     cx="13"
     r="11"
     fill="#ffffff"
     id="circle2" />
  <circle
     cy="169"
     cx="13"
     r="7"
     fill="none"
     stroke="#000000"
     stroke-width="2"
     id="circle3" />
  <circle
     cy="195"
     cx="13"
     r="7"
     fill="none"
     stroke="#000000"
     stroke-width="2"
     id="circle4" />
  <circle
     cx="13"
     cy="195"
     r="2.5"
     id="circle5" />
  <circle
     fill-opacity="0.78"
     cy="217.15273"
     cx="12.73965"
     r="11"
     fill="#ffffff"
     id="circle6" />
  <circle
     fill-opacity="0.78"
     cy="238.95662"
     cx="12.635646"
     r="11"
     fill="#ffffff"
     id="circle7" />
  <path
     d="m 5,83 v 6 h 2 v -4 h 4 v -2 z m 10,0 v 2 h 4 v 4 h 2 v -6 z m -5,5 v 6 h 6 v -6 z m -5,5 v 6 h 6 V 97 H 7 v -4 z m 14,0 v 4 h -4 v 2 h 6 v -6 z"
     id="path5" />
  <path
     d="m 13,110 a 7,7 0 0 0 -7,7 7,7 0 0 0 7,7 7,7 0 0 0 7,-7 7,7 0 0 0 -7,-7 z m -1,3 h 2 v 2 h -2 z m 0,3 h 2 v 5 h -2 z"
     id="path6" />
  <path
     d="m 5,57 v 6 h 2 v -4 h 4 v -2 z m 10,0 v 2 h 4 v 4 h 2 V 57 Z M 5,67 v 6 h 6 V 71 H 7 v -4 z m 14,0 v 4 h -4 v 2 h 6 v -6 z"
     id="path7" />
  <path
     d="m 17,38 v 2 H 9 v -2 z"
     id="path8" />
  <path
     d="m 12,9 v 3 H 9 v 2 h 3 v 3 h 2 v -3 h 3 V 12 H 14 V 9 Z"
     id="path9" />
  <path
     d="m 13,136 -6.125,6.125 H 11.25 V 150 h 3.5 v -7.875 h 4.375 z"
     id="path10" />
  <path
     d="m 10.428,173.33 v -5.77 l 5,-2.89 v 5.77 z m 1,-1.73 3,-1.73 -3.001,-1.74 z"
     id="path11" />
  <path
     d="m 20.72147,217.79874 -6.125,-6.125 v 4.375 h -7.875 v 3.5 h 7.875 v 4.375 z"
     id="path12" />
  <path
     d="m 6.535166,238.73778 6.125,6.125 v -4.375 h 7.875 v -3.5 h -7.875 v -4.375 z"
     id="path13" />
</svg>
